<?xml version="1.0" encoding="UTF-8" standalone="no"?>
<!-- Created with Inkscape (http://www.inkscape.org/) -->

<svg
   xmlns:dc="http://purl.org/dc/elements/1.1/"
   xmlns:cc="http://creativecommons.org/ns#"
   xmlns:rdf="http://www.w3.org/1999/02/22-rdf-syntax-ns#"
   xmlns:svg="http://www.w3.org/2000/svg"
   xmlns="http://www.w3.org/2000/svg"
   xmlns:xlink="http://www.w3.org/1999/xlink"
   xmlns:sodipodi="http://sodipodi.sourceforge.net/DTD/sodipodi-0.dtd"
   xmlns:inkscape="http://www.inkscape.org/namespaces/inkscape"
   width="28.088499"
   height="25.951878"
   id="svg15224"
   version="1.1"
   inkscape:version="0.47 r22583"
   sodipodi:docname="New document 11">
  <defs
     id="defs15226">
    <inkscape:perspective
       sodipodi:type="inkscape:persp3d"
       inkscape:vp_x="0 : 526.18109 : 1"
       inkscape:vp_y="0 : 1000 : 0"
       inkscape:vp_z="744.09448 : 526.18109 : 1"
       inkscape:persp3d-origin="372.04724 : 350.78739 : 1"
       id="perspective15232" />
    <inkscape:perspective
       id="perspective15202"
       inkscape:persp3d-origin="0.5 : 0.33333333 : 1"
       inkscape:vp_z="1 : 0.5 : 1"
       inkscape:vp_y="0 : 1000 : 0"
       inkscape:vp_x="0 : 0.5 : 1"
       sodipodi:type="inkscape:persp3d" />
    <linearGradient
       inkscape:collect="always"
       xlink:href="#XMLID_448_"
       id="linearGradient12422"
       gradientUnits="userSpaceOnUse"
       x1="638.75098"
       y1="257.35501"
       x2="638.75098"
       y2="231.4028" />
    <linearGradient
       id="XMLID_448_"
       gradientUnits="userSpaceOnUse"
       x1="638.75098"
       y1="257.35501"
       x2="638.75098"
       y2="231.4028">
      <stop
         offset="0"
         style="stop-color:#636466"
         id="stop9861" />
      <stop
         offset="0.5"
         style="stop-color:#464648"
         id="stop9863" />
      <stop
         offset="0.5"
         style="stop-color:#5D5E60"
         id="stop9865" />
      <stop
         offset="1"
         style="stop-color:#535355"
         id="stop9867" />
    </linearGradient>
  </defs>
  <sodipodi:namedview
     id="base"
     pagecolor="#ffffff"
     bordercolor="#666666"
     borderopacity="1.0"
     inkscape:pageopacity="0.0"
     inkscape:pageshadow="2"
     inkscape:zoom="0.35"
     inkscape:cx="91.90139"
     inkscape:cy="-44.166914"
     inkscape:document-units="px"
     inkscape:current-layer="layer1"
     showgrid="false"
     inkscape:window-width="550"
     inkscape:window-height="483"
     inkscape:window-x="207"
     inkscape:window-y="207"
     inkscape:window-maximized="0" />
  <metadata
     id="metadata15229">
    <rdf:RDF>
      <cc:Work
         rdf:about="">
        <dc:format>image/svg+xml</dc:format>
        <dc:type
           rdf:resource="http://purl.org/dc/dcmitype/StillImage" />
        <dc:title></dc:title>
      </cc:Work>
    </rdf:RDF>
  </metadata>
  <g
     inkscape:label="Layer 1"
     inkscape:groupmode="layer"
     id="layer1"
     transform="translate(-283.09861,-462.24339)">
    <g
       transform="translate(-341.60937,230.84099)"
       id="g9858">
      <linearGradient
         id="linearGradient15213"
         gradientUnits="userSpaceOnUse"
         x1="638.75098"
         y1="257.35501"
         x2="638.75098"
         y2="231.4028">
        <stop
           offset="0"
           style="stop-color:#636466"
           id="stop15215" />
        <stop
           offset="0.5"
           style="stop-color:#464648"
           id="stop15217" />
        <stop
           offset="0.5"
           style="stop-color:#5D5E60"
           id="stop15219" />
        <stop
           offset="1"
           style="stop-color:#535355"
           id="stop15221" />
      </linearGradient>
      <path
         d="m 632.313,247.444 9.246,-9.244 -0.078,0.068 c 0.12,-0.094 3.012,-2.313 5.254,-0.068 2.155,2.155 0.208,4.397 -0.022,4.646 l 0.022,-0.024 -11.186,11.186 0.059,-0.052 c -0.169,0.14 -4.177,3.421 -7.546,0.052 -3.257,-3.256 -0.341,-6.402 0.002,-6.75 -0.002,0.002 12.2,-12.202 12.2,-12.202 l -0.049,0.046 c 0.196,-0.167 4.878,-4.089 8.925,-0.046 4.034,4.036 0.132,8.54 -0.037,8.73 l 0.037,-0.039 -9.707,9.706 1.295,1.295 9.707,-9.706 0.016,-0.019 0.019,-0.02 c 1.83,-2.046 4.178,-7.027 -0.034,-11.241 -4.206,-4.206 -9.308,-1.867 -11.417,-0.045 l -0.024,0.021 -0.022,0.024 -12.204,12.204 c -1.614,1.614 -3.692,5.644 0,9.336 3.651,3.651 8.152,1.631 10.021,0.052 l 0.029,-0.025 0.026,-0.026 11.186,-11.187 c 1.221,-1.298 2.764,-4.449 0,-7.211 -2.723,-2.723 -6.219,-1.236 -7.688,-0.067 l -0.041,0.032 -0.037,0.035 -9.245,9.246 1.293,1.293 z"
         id="path9869"
         style="fill:url(#linearGradient12422)" />
    </g>
  </g>
</svg>
