<?xml version="1.0" encoding="UTF-8" standalone="no"?>
<!-- Created with Inkscape (http://www.inkscape.org/) -->

<svg
   xmlns:dc="http://purl.org/dc/elements/1.1/"
   xmlns:cc="http://creativecommons.org/ns#"
   xmlns:rdf="http://www.w3.org/1999/02/22-rdf-syntax-ns#"
   xmlns:svg="http://www.w3.org/2000/svg"
   xmlns="http://www.w3.org/2000/svg"
   xmlns:sodipodi="http://sodipodi.sourceforge.net/DTD/sodipodi-0.dtd"
   xmlns:inkscape="http://www.inkscape.org/namespaces/inkscape"
   width="31.459002"
   height="31.458982"
   id="svg14887"
   version="1.1"
   inkscape:version="0.48.0 r9654"
   sodipodi:docname="New document 10">
  <defs
     id="defs14889" />
  <sodipodi:namedview
     id="base"
     pagecolor="#ffffff"
     bordercolor="#666666"
     borderopacity="1.0"
     inkscape:pageopacity="0.0"
     inkscape:pageshadow="2"
     inkscape:zoom="5.6"
     inkscape:cx="39.300937"
     inkscape:cy="22.872358"
     inkscape:document-units="px"
     inkscape:current-layer="layer1"
     showgrid="false"
     fit-margin-top="2"
     fit-margin-left="2"
     fit-margin-right="2"
     fit-margin-bottom="2"
     inkscape:window-width="1366"
     inkscape:window-height="695"
     inkscape:window-x="0"
     inkscape:window-y="24"
     inkscape:window-maximized="1" />
  <metadata
     id="metadata14892">
    <rdf:RDF>
      <cc:Work
         rdf:about="">
        <dc:format>image/svg+xml</dc:format>
        <dc:type
           rdf:resource="http://purl.org/dc/dcmitype/StillImage" />
        <dc:title></dc:title>
      </cc:Work>
    </rdf:RDF>
  </metadata>
  <g
     inkscape:label="Layer 1"
     inkscape:groupmode="layer"
     id="layer1"
     transform="translate(-307.12764,-488.06126)">
    <g
       transform="translate(247.53964,-59.996733)"
       id="g5879">
      <circle
         d="m 70.620998,556.87701 c 0,1.22276 -0.991242,2.214 -2.214,2.214 -1.222759,0 -2.214,-0.99124 -2.214,-2.214 0,-1.22275 0.991241,-2.214 2.214,-2.214 1.222758,0 2.214,0.99125 2.214,2.214 z"
         cx="68.406998"
         cy="556.87701"
         r="2.214"
         id="circle5881"
         sodipodi:cx="68.406998"
         sodipodi:cy="556.87701"
         sodipodi:rx="2.214"
         sodipodi:ry="2.214"
         style="fill:#636466" />
      <circle
         d="m 79.834003,566.09003 c 0,1.22276 -0.991242,2.214 -2.214,2.214 -1.222759,0 -2.214,-0.99124 -2.214,-2.214 0,-1.22276 0.991241,-2.214 2.214,-2.214 1.222758,0 2.214,0.99124 2.214,2.214 z"
         cx="77.620003"
         cy="566.09003"
         r="2.214"
         id="circle5883"
         sodipodi:cx="77.620003"
         sodipodi:cy="566.09003"
         sodipodi:rx="2.214"
         sodipodi:ry="2.214"
         style="fill:#636466" />
      <circle
         d="m 84.440997,570.69702 c 0,1.22276 -0.991241,2.214 -2.214,2.214 -1.222758,0 -2.214,-0.99124 -2.214,-2.214 0,-1.22276 0.991242,-2.214 2.214,-2.214 1.222759,0 2.214,0.99124 2.214,2.214 z"
         cx="82.226997"
         cy="570.69702"
         r="2.214"
         id="circle5885"
         sodipodi:cx="82.226997"
         sodipodi:cy="570.69702"
         sodipodi:rx="2.214"
         sodipodi:ry="2.214"
         style="fill:#636466" />
      <circle
         d="m 89.047,575.30298 c 0,1.22276 -0.991241,2.214 -2.214,2.214 -1.222758,0 -2.214,-0.99124 -2.214,-2.214 0,-1.22276 0.991242,-2.214 2.214,-2.214 1.222759,0 2.214,0.99124 2.214,2.214 z"
         cx="86.833"
         cy="575.30298"
         r="2.214"
         id="circle5887"
         sodipodi:cx="86.833"
         sodipodi:cy="575.30298"
         sodipodi:rx="2.214"
         sodipodi:ry="2.214"
         style="fill:#636466" />
      <circle
         d="m 66.013999,552.271 c 0,1.2222 -0.990794,2.213 -2.213,2.213 -1.222206,0 -2.213,-0.9908 -2.213,-2.213 0,-1.22221 0.990794,-2.213 2.213,-2.213 1.222206,0 2.213,0.99079 2.213,2.213 z"
         cx="63.800999"
         cy="552.271"
         r="2.2130001"
         id="circle5889"
         sodipodi:cx="63.800999"
         sodipodi:cy="552.271"
         sodipodi:rx="2.2130001"
         sodipodi:ry="2.2130001"
         style="fill:#636466" />
      <circle
         d="m 75.125003,552.37299 c 0,1.22275 -0.991241,2.214 -2.214,2.214 -1.222758,0 -2.214,-0.99125 -2.214,-2.214 0,-1.22276 0.991242,-2.214 2.214,-2.214 1.222759,0 2.214,0.99124 2.214,2.214 z"
         cx="72.911003"
         cy="552.37299"
         r="2.214"
         id="circle5891"
         sodipodi:cx="72.911003"
         sodipodi:cy="552.37299"
         sodipodi:rx="2.214"
         sodipodi:ry="2.214"
         style="fill:#636466" />
      <circle
         d="m 66.293002,561.20502 c 0,1.22276 -0.991241,2.214 -2.214,2.214 -1.222758,0 -2.214,-0.99124 -2.214,-2.214 0,-1.22276 0.991242,-2.214 2.214,-2.214 1.222759,0 2.214,0.99124 2.214,2.214 z"
         cx="64.079002"
         cy="561.20502"
         r="2.214"
         id="circle5893"
         sodipodi:cx="64.079002"
         sodipodi:cy="561.20502"
         sodipodi:rx="2.214"
         sodipodi:ry="2.214"
         style="fill:#636466" />
      <g
         id="g5895">
        <circle
           d="m 75.227,561.48199 c 0,1.22276 -0.991241,2.214 -2.214,2.214 -1.222758,0 -2.213999,-0.99124 -2.213999,-2.214 0,-1.22275 0.991241,-2.214 2.213999,-2.214 1.222759,0 2.214,0.99125 2.214,2.214 z"
           cx="73.013"
           cy="561.48199"
           r="2.214"
           id="circle5897"
           sodipodi:cx="73.013"
           sodipodi:cy="561.48199"
           sodipodi:rx="2.214"
           sodipodi:ry="2.214"
           style="fill:#636466" />
        <circle
           d="m 84.032001,552.67999 c 0,1.22276 -0.991242,2.214 -2.214,2.214 -1.222759,0 -2.214,-0.99124 -2.214,-2.214 0,-1.22276 0.991241,-2.214 2.214,-2.214 1.222758,0 2.214,0.99124 2.214,2.214 z"
           cx="81.818001"
           cy="552.67999"
           r="2.214"
           id="circle5899"
           sodipodi:cx="81.818001"
           sodipodi:cy="552.67999"
           sodipodi:rx="2.214"
           sodipodi:ry="2.214"
           style="fill:#636466" />
        <circle
           d="m 79.631,557.08099 c 0,1.22331 -0.991689,2.215 -2.215,2.215 -1.22331,0 -2.215,-0.99169 -2.215,-2.215 0,-1.22331 0.99169,-2.215 2.215,-2.215 1.223311,0 2.215,0.99169 2.215,2.215 z"
           cx="77.416"
           cy="557.08099"
           r="2.2149999"
           id="circle5901"
           sodipodi:cx="77.416"
           sodipodi:cy="557.08099"
           sodipodi:rx="2.2149999"
           sodipodi:ry="2.2149999"
           style="fill:#636466" />
        <circle
           d="m 66.422,570.289 c 0,1.22276 -0.991241,2.214 -2.214,2.214 -1.222758,0 -2.214,-0.99124 -2.214,-2.214 0,-1.22276 0.991242,-2.214 2.214,-2.214 1.222759,0 2.214,0.99124 2.214,2.214 z"
           cx="64.208"
           cy="570.289"
           r="2.214"
           id="circle5903"
           sodipodi:cx="64.208"
           sodipodi:cy="570.289"
           sodipodi:rx="2.214"
           sodipodi:ry="2.214"
           style="fill:#636466" />
        <circle
           d="m 70.824001,565.88702 c 0,1.22276 -0.991242,2.214 -2.214,2.214 -1.222759,0 -2.214,-0.99124 -2.214,-2.214 0,-1.22275 0.991241,-2.214 2.214,-2.214 1.222758,0 2.214,0.99125 2.214,2.214 z"
           cx="68.610001"
           cy="565.88702"
           r="2.214"
           id="circle5905"
           sodipodi:cx="68.610001"
           sodipodi:cy="565.88702"
           sodipodi:rx="2.214"
           sodipodi:ry="2.214"
           style="fill:#636466" />
      </g>
    </g>
  </g>
</svg>
