<?xml version="1.0" encoding="UTF-8" standalone="no"?>
<!-- Created with Inkscape (http://www.inkscape.org/) -->

<svg
   xmlns:dc="http://purl.org/dc/elements/1.1/"
   xmlns:cc="http://creativecommons.org/ns#"
   xmlns:rdf="http://www.w3.org/1999/02/22-rdf-syntax-ns#"
   xmlns:svg="http://www.w3.org/2000/svg"
   xmlns="http://www.w3.org/2000/svg"
   xmlns:sodipodi="http://sodipodi.sourceforge.net/DTD/sodipodi-0.dtd"
   xmlns:inkscape="http://www.inkscape.org/namespaces/inkscape"
   width="31.461004"
   height="31.461996"
   id="svg14803"
   version="1.1"
   inkscape:version="0.48.0 r9654"
   sodipodi:docname="New document 7">
  <defs
     id="defs14805" />
  <sodipodi:namedview
     id="base"
     pagecolor="#ffffff"
     bordercolor="#666666"
     borderopacity="1.0"
     inkscape:pageopacity="0.0"
     inkscape:pageshadow="2"
     inkscape:zoom="2.8"
     inkscape:cx="33.181544"
     inkscape:cy="36.746245"
     inkscape:document-units="px"
     inkscape:current-layer="layer1"
     showgrid="false"
     fit-margin-top="2"
     fit-margin-left="2"
     fit-margin-right="2"
     fit-margin-bottom="2"
     inkscape:window-width="1366"
     inkscape:window-height="695"
     inkscape:window-x="0"
     inkscape:window-y="24"
     inkscape:window-maximized="1" />
  <metadata
     id="metadata14808">
    <rdf:RDF>
      <cc:Work
         rdf:about="">
        <dc:format>image/svg+xml</dc:format>
        <dc:type
           rdf:resource="http://purl.org/dc/dcmitype/StillImage" />
        <dc:title></dc:title>
      </cc:Work>
    </rdf:RDF>
  </metadata>
  <g
     inkscape:label="Layer 1"
     inkscape:groupmode="layer"
     id="layer1"
     transform="translate(-301.41235,-436.63119)">
    <g
       transform="translate(180.12835,-111.42581)"
       id="g5907">
      <circle
         d="m 146.138,570.69702 c 0,1.22276 -0.99125,2.214 -2.214,2.214 -1.22276,0 -2.214,-0.99124 -2.214,-2.214 0,-1.22276 0.99124,-2.214 2.214,-2.214 1.22275,0 2.214,0.99124 2.214,2.214 z"
         cx="143.924"
         cy="570.69702"
         r="2.214"
         id="circle5909"
         sodipodi:cx="143.924"
         sodipodi:cy="570.69702"
         sodipodi:rx="2.214"
         sodipodi:ry="2.214"
         style="fill:#636466" />
      <circle
         d="m 136.925,561.48401 c 0,1.22276 -0.99124,2.214 -2.214,2.214 -1.22276,0 -2.214,-0.99124 -2.214,-2.214 0,-1.22276 0.99124,-2.214 2.214,-2.214 1.22276,0 2.214,0.99124 2.214,2.214 z"
         cx="134.711"
         cy="561.48401"
         r="2.214"
         id="circle5911"
         sodipodi:cx="134.711"
         sodipodi:cy="561.48401"
         sodipodi:rx="2.214"
         sodipodi:ry="2.214"
         style="fill:#636466" />
      <circle
         d="m 132.319,556.87903 c 0,1.22276 -0.99125,2.214 -2.214,2.214 -1.22276,0 -2.214,-0.99124 -2.214,-2.214 0,-1.22276 0.99124,-2.214 2.214,-2.214 1.22275,0 2.214,0.99124 2.214,2.214 z"
         cx="130.105"
         cy="556.87903"
         r="2.214"
         id="circle5913"
         sodipodi:cx="130.105"
         sodipodi:cy="556.87903"
         sodipodi:rx="2.214"
         sodipodi:ry="2.214"
         style="fill:#636466" />
      <circle
         d="m 127.712,552.271 c 0,1.22275 -0.99124,2.214 -2.214,2.214 -1.22276,0 -2.214,-0.99125 -2.214,-2.214 0,-1.22276 0.99124,-2.214 2.214,-2.214 1.22276,0 2.214,0.99124 2.214,2.214 z"
         cx="125.498"
         cy="552.271"
         r="2.214"
         id="circle5915"
         sodipodi:cx="125.498"
         sodipodi:cy="552.271"
         sodipodi:rx="2.214"
         sodipodi:ry="2.214"
         style="fill:#636466" />
      <circle
         d="m 150.74501,575.30499 c 0,1.22276 -0.99125,2.214 -2.214,2.214 -1.22276,0 -2.214,-0.99124 -2.214,-2.214 0,-1.22276 0.99124,-2.214 2.214,-2.214 1.22275,0 2.214,0.99124 2.214,2.214 z"
         cx="148.53101"
         cy="575.30499"
         r="2.214"
         id="circle5917"
         sodipodi:cx="148.53101"
         sodipodi:cy="575.30499"
         sodipodi:rx="2.214"
         sodipodi:ry="2.214"
         style="fill:#636466" />
      <circle
         d="m 141.633,575.20203 c 0,1.2222 -0.9908,2.213 -2.213,2.213 -1.22221,0 -2.213,-0.9908 -2.213,-2.213 0,-1.22221 0.99079,-2.213 2.213,-2.213 1.2222,0 2.213,0.99079 2.213,2.213 z"
         cx="139.42"
         cy="575.20203"
         r="2.2130001"
         id="circle5919"
         sodipodi:cx="139.42"
         sodipodi:cy="575.20203"
         sodipodi:rx="2.2130001"
         sodipodi:ry="2.2130001"
         style="fill:#636466" />
      <circle
         d="m 150.466,566.36902 c 0,1.22276 -0.99124,2.214 -2.214,2.214 -1.22276,0 -2.214,-0.99124 -2.214,-2.214 0,-1.22276 0.99124,-2.214 2.214,-2.214 1.22276,0 2.214,0.99124 2.214,2.214 z"
         cx="148.252"
         cy="566.36902"
         r="2.214"
         id="circle5921"
         sodipodi:cx="148.252"
         sodipodi:cy="566.36902"
         sodipodi:rx="2.214"
         sodipodi:ry="2.214"
         style="fill:#636466" />
      <g
         id="g5923">
        <circle
           d="m 141.53199,566.09198 c 0,1.22276 -0.99124,2.214 -2.214,2.214 -1.22276,0 -2.214,-0.99124 -2.214,-2.214 0,-1.22276 0.99124,-2.214 2.214,-2.214 1.22276,0 2.214,0.99124 2.214,2.214 z"
           cx="139.31799"
           cy="566.09198"
           r="2.214"
           id="circle5925"
           sodipodi:cx="139.31799"
           sodipodi:cy="566.09198"
           sodipodi:rx="2.214"
           sodipodi:ry="2.214"
           style="fill:#636466" />
        <circle
           d="m 132.72801,574.896 c 0,1.22275 -0.99124,2.214 -2.214,2.214 -1.22276,0 -2.214,-0.99125 -2.214,-2.214 0,-1.22276 0.99124,-2.214 2.214,-2.214 1.22276,0 2.214,0.99124 2.214,2.214 z"
           cx="130.51401"
           cy="574.896"
           r="2.214"
           id="circle5927"
           sodipodi:cx="130.51401"
           sodipodi:cy="574.896"
           sodipodi:rx="2.214"
           sodipodi:ry="2.214"
           style="fill:#636466" />
        <circle
           d="m 137.13,570.49402 c 0,1.22276 -0.99124,2.214 -2.214,2.214 -1.22276,0 -2.214,-0.99124 -2.214,-2.214 0,-1.22276 0.99124,-2.214 2.214,-2.214 1.22276,0 2.214,0.99124 2.214,2.214 z"
           cx="134.916"
           cy="570.49402"
           r="2.214"
           id="circle5929"
           sodipodi:cx="134.916"
           sodipodi:cy="570.49402"
           sodipodi:rx="2.214"
           sodipodi:ry="2.214"
           style="fill:#636466" />
        <circle
           d="m 150.337,557.28699 c 0,1.22276 -0.99124,2.214 -2.214,2.214 -1.22276,0 -2.214,-0.99124 -2.214,-2.214 0,-1.22276 0.99124,-2.214 2.214,-2.214 1.22276,0 2.214,0.99124 2.214,2.214 z"
           cx="148.123"
           cy="557.28699"
           r="2.214"
           id="circle5931"
           sodipodi:cx="148.123"
           sodipodi:cy="557.28699"
           sodipodi:rx="2.214"
           sodipodi:ry="2.214"
           style="fill:#636466" />
        <circle
           d="m 145.93499,561.68903 c 0,1.22275 -0.99124,2.214 -2.214,2.214 -1.22276,0 -2.214,-0.99125 -2.214,-2.214 0,-1.22276 0.99124,-2.214 2.214,-2.214 1.22276,0 2.214,0.99124 2.214,2.214 z"
           cx="143.72099"
           cy="561.68903"
           r="2.214"
           id="circle5933"
           sodipodi:cx="143.72099"
           sodipodi:cy="561.68903"
           sodipodi:rx="2.214"
           sodipodi:ry="2.214"
           style="fill:#636466" />
      </g>
    </g>
  </g>
</svg>
