<?xml version="1.0" encoding="UTF-8" standalone="no"?>
<!-- Created with Inkscape (http://www.inkscape.org/) -->

<svg
   xmlns:dc="http://purl.org/dc/elements/1.1/"
   xmlns:cc="http://creativecommons.org/ns#"
   xmlns:rdf="http://www.w3.org/1999/02/22-rdf-syntax-ns#"
   xmlns:svg="http://www.w3.org/2000/svg"
   xmlns="http://www.w3.org/2000/svg"
   xmlns:sodipodi="http://sodipodi.sourceforge.net/DTD/sodipodi-0.dtd"
   xmlns:inkscape="http://www.inkscape.org/namespaces/inkscape"
   width="33.153999"
   height="33.154999"
   id="svg14852"
   version="1.1"
   inkscape:version="0.47 r22583"
   sodipodi:docname="New document 18">
  <defs
     id="defs14854">
    <inkscape:perspective
       sodipodi:type="inkscape:persp3d"
       inkscape:vp_x="0 : 526.18109 : 1"
       inkscape:vp_y="0 : 1000 : 0"
       inkscape:vp_z="744.09448 : 526.18109 : 1"
       inkscape:persp3d-origin="372.04724 : 350.78739 : 1"
       id="perspective14860" />
    <inkscape:perspective
       id="perspective14847"
       inkscape:persp3d-origin="0.5 : 0.33333333 : 1"
       inkscape:vp_z="1 : 0.5 : 1"
       inkscape:vp_y="0 : 1000 : 0"
       inkscape:vp_x="0 : 0.5 : 1"
       sodipodi:type="inkscape:persp3d" />
    <inkscape:perspective
       id="perspective14879"
       inkscape:persp3d-origin="0.5 : 0.33333333 : 1"
       inkscape:vp_z="1 : 0.5 : 1"
       inkscape:vp_y="0 : 1000 : 0"
       inkscape:vp_x="0 : 0.5 : 1"
       sodipodi:type="inkscape:persp3d" />
  </defs>
  <sodipodi:namedview
     id="base"
     pagecolor="#ffffff"
     bordercolor="#666666"
     borderopacity="1.0"
     inkscape:pageopacity="0.0"
     inkscape:pageshadow="2"
     inkscape:zoom="1.979899"
     inkscape:cx="-7.2148986"
     inkscape:cy="-77.708213"
     inkscape:document-units="px"
     inkscape:current-layer="layer1"
     showgrid="false"
     inkscape:window-width="1680"
     inkscape:window-height="1000"
     inkscape:window-x="-8"
     inkscape:window-y="-8"
     inkscape:window-maximized="1" />
  <metadata
     id="metadata14857">
    <rdf:RDF>
      <cc:Work
         rdf:about="">
        <dc:format>image/svg+xml</dc:format>
        <dc:type
           rdf:resource="http://purl.org/dc/dcmitype/StillImage" />
        <dc:title></dc:title>
      </cc:Work>
    </rdf:RDF>
  </metadata>
  <g
     inkscape:label="Layer 1"
     inkscape:groupmode="layer"
     id="layer1"
     transform="translate(-303.423,-421.49897)">
    <g
       transform="translate(-205.012,-138.93903)"
       id="g9935">
      <g
         id="g9937">
        <path
           style="fill:none"
           id="path9939"
           d="m 525.012,560.438 c -9.141,0 -16.577,7.437 -16.577,16.578 0,9.141 7.437,16.577 16.577,16.577 9.14,0 16.577,-7.437 16.577,-16.577 0,-9.141 -7.437,-16.578 -16.577,-16.578 z m 15.577,16.579 c 0,8.589 -6.988,15.577 -15.577,15.577 -8.589,0 -15.577,-6.988 -15.577,-15.577 0,-8.59 6.988,-15.578 15.577,-15.578 8.589,0 15.577,6.988 15.577,15.578 z" />
        <path
           style="fill:#636466"
           id="path9941"
           d="m 538.404,577.204 c 0,-2.243 -0.566,-4.463 -1.639,-6.418 -10e-4,-10e-4 -0.209,-0.378 -0.209,-0.378 l -0.245,-0.444 -0.44,0.252 -0.374,0.214 c -10e-4,0 -3.074,1.762 -3.074,1.762 0.002,-10e-4 -0.355,0.202 -0.355,0.202 l -0.426,0.242 0.233,0.43 0.196,0.363 c 0.623,1.156 0.952,2.461 0.952,3.775 0,4.417 -3.594,8.011 -8.012,8.011 -4.418,0 -8.011,-3.594 -8.011,-8.011 0,-3.794 2.699,-7.092 6.417,-7.842 l -0.599,-0.49 v 2.209 0.863 l 0.749,-0.43 0.637,-0.365 c 0.001,-10e-4 6.652,-3.846 6.652,-3.846 10e-4,0 0.632,-0.366 0.632,-0.366 l 0.746,-0.433 -0.746,-0.433 -0.634,-0.367 c -0.001,0 -6.649,-3.838 -6.649,-3.838 -0.001,-10e-4 -0.638,-0.366 -0.638,-0.366 l -0.749,-0.43 v 0.863 2.491 l 0.436,-0.496 c -6.633,0.861 -11.635,6.567 -11.635,13.274 0,7.386 6.008,13.395 13.393,13.395 7.385,0 13.392,-6.007 13.392,-13.393 z" />
      </g>
    </g>
    <path
       style="opacity:0.25;fill:#ffffff"
       id="path9943"
       d="m 306.305,446.34497 c 1.416,1.757 29.257,-12.948 28.65,-14.433 -2.404,-5.884 -8.188,-10.031 -14.939,-10.031 -8.91,0 -16.004,6.982 -16.071,16.498 0.334,3.511 0.945,6.211 2.36,7.966 z" />
  </g>
</svg>
