<?xml version="1.0" encoding="UTF-8" standalone="no"?>
<!-- Created with Inkscape (http://www.inkscape.org/) -->

<svg
   xmlns:dc="http://purl.org/dc/elements/1.1/"
   xmlns:cc="http://creativecommons.org/ns#"
   xmlns:rdf="http://www.w3.org/1999/02/22-rdf-syntax-ns#"
   xmlns:svg="http://www.w3.org/2000/svg"
   xmlns="http://www.w3.org/2000/svg"
   xmlns:sodipodi="http://sodipodi.sourceforge.net/DTD/sodipodi-0.dtd"
   xmlns:inkscape="http://www.inkscape.org/namespaces/inkscape"
   width="43.59"
   height="43.59"
   id="svg14603"
   version="1.1"
   inkscape:version="0.48.0 r9654"
   sodipodi:docname="replyAll.svg">
  <defs
     id="defs14605" />
  <sodipodi:namedview
     id="base"
     pagecolor="#ffffff"
     bordercolor="#666666"
     borderopacity="1.0"
     inkscape:pageopacity="0.0"
     inkscape:pageshadow="2"
     inkscape:zoom="11.2"
     inkscape:cx="22.836458"
     inkscape:cy="22.620362"
     inkscape:document-units="px"
     inkscape:current-layer="layer1"
     showgrid="false"
     fit-margin-top="0"
     fit-margin-left="2"
     fit-margin-right="2"
     fit-margin-bottom="0"
     inkscape:window-width="1366"
     inkscape:window-height="695"
     inkscape:window-x="0"
     inkscape:window-y="24"
     inkscape:window-maximized="1" />
  <metadata
     id="metadata14608">
    <rdf:RDF>
      <cc:Work
         rdf:about="">
        <dc:format>image/svg+xml</dc:format>
        <dc:type
           rdf:resource="http://purl.org/dc/dcmitype/StillImage" />
        <dc:title />
      </cc:Work>
    </rdf:RDF>
  </metadata>
  <g
     inkscape:label="Layer 1"
     inkscape:groupmode="layer"
     id="layer1"
     transform="translate(-348.1875,-420.12875)">
    <g
       id="g2987"
       transform="translate(0,-5.9821429)">
      <path
         style="fill:none;stroke:#636466;stroke-width:2"
         inkscape:connector-curvature="0"
         id="path6976"
         d="m 352.17593,450.9341 17.377,10.033 v -5.155 c 0,0 3.83,0 7.529,0 3.7,0 7.885,4.854 7.885,4.854 0,0 -1.141,-11.417 -5.326,-13.32 -4.188,-1.902 -10.087,-1.292 -10.087,-1.292 v -5.154 l -17.378,10.034 z" />
      <path
         style="fill:none;stroke:#636466;stroke-width:2"
         inkscape:connector-curvature="0"
         id="path6976-4"
         d="m 355.67724,444.95586 17.377,10.033 v -5.155 c 0,0 3.83,0 7.529,0 3.7,0 7.885,4.854 7.885,4.854 0,0 -1.141,-11.417 -5.326,-13.32 -4.188,-1.902 -10.087,-1.292 -10.087,-1.292 v -5.154 l -17.378,10.034 z" />
    </g>
  </g>
</svg>
