<?xml version="1.0" encoding="UTF-8" standalone="no"?>
<!-- Created with Inkscape (http://www.inkscape.org/) -->

<svg
   xmlns:dc="http://purl.org/dc/elements/1.1/"
   xmlns:cc="http://creativecommons.org/ns#"
   xmlns:rdf="http://www.w3.org/1999/02/22-rdf-syntax-ns#"
   xmlns:svg="http://www.w3.org/2000/svg"
   xmlns="http://www.w3.org/2000/svg"
   xmlns:sodipodi="http://sodipodi.sourceforge.net/DTD/sodipodi-0.dtd"
   xmlns:inkscape="http://www.inkscape.org/namespaces/inkscape"
   width="34.368454"
   height="33.325787"
   id="svg22214"
   version="1.1"
   inkscape:version="0.47 r22583"
   sodipodi:docname="New document 9">
  <defs
     id="defs22216">
    <inkscape:perspective
       sodipodi:type="inkscape:persp3d"
       inkscape:vp_x="0 : 526.18109 : 1"
       inkscape:vp_y="0 : 1000 : 0"
       inkscape:vp_z="744.09448 : 526.18109 : 1"
       inkscape:persp3d-origin="372.04724 : 350.78739 : 1"
       id="perspective22222" />
    <inkscape:perspective
       id="perspective22207"
       inkscape:persp3d-origin="0.5 : 0.33333333 : 1"
       inkscape:vp_z="1 : 0.5 : 1"
       inkscape:vp_y="0 : 1000 : 0"
       inkscape:vp_x="0 : 0.5 : 1"
       sodipodi:type="inkscape:persp3d" />
  </defs>
  <sodipodi:namedview
     id="base"
     pagecolor="#ffffff"
     bordercolor="#666666"
     borderopacity="1.0"
     inkscape:pageopacity="0.0"
     inkscape:pageshadow="2"
     inkscape:zoom="0.35"
     inkscape:cx="86.46994"
     inkscape:cy="-37.622822"
     inkscape:document-units="px"
     inkscape:current-layer="layer1"
     showgrid="false"
     inkscape:window-width="550"
     inkscape:window-height="483"
     inkscape:window-x="69"
     inkscape:window-y="69"
     inkscape:window-maximized="0" />
  <metadata
     id="metadata22219">
    <rdf:RDF>
      <cc:Work
         rdf:about="">
        <dc:format>image/svg+xml</dc:format>
        <dc:type
           rdf:resource="http://purl.org/dc/dcmitype/StillImage" />
        <dc:title></dc:title>
      </cc:Work>
    </rdf:RDF>
  </metadata>
  <g
     inkscape:label="Layer 1"
     inkscape:groupmode="layer"
     id="layer1"
     transform="translate(-288.53006,-461.41358)">
    <g
       transform="translate(144.17606,98.671576)"
       id="g16886">
      <path
         d="m 162.186,371.048 c 0,-0.219 -0.181,-0.398 -0.398,-0.398 h -0.731 c -0.222,0 -0.453,-0.171 -0.514,-0.382 l -0.996,-2.322 c -0.106,-0.19 -0.071,-0.473 0.084,-0.628 l 0.495,-0.494 c 0.155,-0.156 0.155,-0.41 0,-0.564 l -1.19,-1.191 c -0.155,-0.156 -0.408,-0.156 -0.566,0 l -0.536,0.539 c -0.157,0.156 -0.444,0.198 -0.637,0.096 l -2.021,-0.807 c -0.211,-0.06 -0.384,-0.29 -0.384,-0.508 v -0.75 c 0,-0.218 -0.18,-0.397 -0.398,-0.397 h -1.686 c -0.219,0 -0.399,0.179 -0.399,0.397 v 0.75 c 0,0.218 -0.172,0.45 -0.381,0.515 l -2.344,1.003 c -0.187,0.11 -0.467,0.073 -0.624,-0.081 l -0.526,-0.526 c -0.154,-0.155 -0.408,-0.155 -0.563,0 l -1.191,1.192 c -0.157,0.156 -0.157,0.41 0,0.564 l 0.571,0.574 c 0.158,0.156 0.201,0.439 0.099,0.635 l -0.797,2.002 c -0.059,0.213 -0.287,0.384 -0.508,0.384 h -0.795 c -0.218,0 -0.396,0.179 -0.396,0.398 v 1.685 c 0,0.22 0.178,0.4 0.396,0.4 h 0.795 c 0.221,0 0.452,0.17 0.515,0.381 l 0.978,2.305 c 0.112,0.189 0.073,0.471 -0.079,0.627 l -0.548,0.545 c -0.155,0.155 -0.155,0.408 0,0.563 l 1.193,1.191 c 0.155,0.156 0.409,0.156 0.562,0 l 0.586,-0.582 c 0.155,-0.155 0.437,-0.197 0.633,-0.093 l 2.043,0.815 c 0.208,0.061 0.381,0.291 0.381,0.508 v 0.781 c 0,0.219 0.18,0.398 0.399,0.398 h 1.686 c 0.218,0 0.398,-0.179 0.398,-0.398 v -0.781 c 0,-0.217 0.171,-0.447 0.384,-0.511 l 2.285,-0.97 c 0.19,-0.107 0.469,-0.07 0.626,0.083 l 0.515,0.519 c 0.155,0.154 0.409,0.154 0.564,0 l 1.192,-1.193 c 0.156,-0.154 0.156,-0.408 0,-0.562 l -0.55,-0.549 c -0.152,-0.156 -0.195,-0.439 -0.092,-0.633 l 0.828,-2.062 c 0.058,-0.212 0.289,-0.382 0.511,-0.384 h 0.731 c 0.217,0 0.398,-0.179 0.398,-0.398 v -1.686 z m -8.665,3.693 c -1.567,0 -2.833,-1.27 -2.833,-2.835 0,-1.565 1.267,-2.834 2.833,-2.834 1.564,0 2.834,1.269 2.834,2.834 0,1.565 -1.27,2.835 -2.834,2.835 z"
         id="path16888"
         style="fill:none;stroke:#636466" />
      <path
         d="m 177.456,379.923 c -0.096,-0.264 -0.392,-0.4 -0.653,-0.304 l -0.88,0.32 c -0.266,0.098 -0.619,-0.007 -0.785,-0.233 l -2.217,-2.356 c -0.211,-0.182 -0.292,-0.537 -0.174,-0.792 l 0.377,-0.812 c 0.118,-0.255 0.007,-0.561 -0.248,-0.678 l -1.955,-0.91 c -0.254,-0.12 -0.559,-0.008 -0.681,0.249 l -0.408,0.883 c -0.121,0.256 -0.447,0.432 -0.723,0.395 l -2.785,-0.083 c -0.281,0.021 -0.589,-0.18 -0.685,-0.442 l -0.329,-0.901 c -0.097,-0.263 -0.392,-0.399 -0.653,-0.304 l -2.028,0.741 c -0.262,0.096 -0.4,0.391 -0.305,0.653 l 0.329,0.901 c 0.096,0.262 -0.01,0.617 -0.232,0.786 l -2.377,2.235 c -0.176,0.215 -0.53,0.292 -0.787,0.177 l -0.862,-0.402 c -0.254,-0.118 -0.56,-0.007 -0.678,0.248 l -0.91,1.956 c -0.12,0.256 -0.008,0.562 0.249,0.678 l 0.938,0.439 c 0.258,0.118 0.435,0.44 0.397,0.72 l -0.079,2.757 c 0.023,0.282 -0.177,0.588 -0.442,0.685 l -0.956,0.349 c -0.263,0.096 -0.398,0.39 -0.301,0.653 l 0.74,2.026 c 0.096,0.265 0.39,0.404 0.652,0.308 l 0.956,-0.35 c 0.266,-0.097 0.617,0.006 0.786,0.232 l 2.188,2.343 c 0.218,0.178 0.295,0.534 0.18,0.789 l -0.42,0.896 c -0.118,0.254 -0.007,0.558 0.247,0.677 l 1.958,0.909 c 0.255,0.12 0.56,0.008 0.675,-0.246 l 0.45,-0.957 c 0.118,-0.255 0.438,-0.429 0.719,-0.39 l 2.815,0.083 c 0.277,-0.019 0.585,0.182 0.681,0.443 l 0.342,0.939 c 0.097,0.264 0.392,0.4 0.655,0.304 l 2.027,-0.74 c 0.262,-0.096 0.4,-0.39 0.304,-0.654 l -0.343,-0.939 c -0.095,-0.261 0.01,-0.612 0.238,-0.783 l 2.322,-2.17 c 0.181,-0.212 0.533,-0.29 0.79,-0.174 l 0.847,0.397 c 0.254,0.117 0.56,0.005 0.679,-0.248 l 0.91,-1.958 c 0.12,-0.253 0.008,-0.559 -0.247,-0.676 l -0.903,-0.418 c -0.251,-0.121 -0.428,-0.443 -0.388,-0.721 l 0.09,-2.843 c -0.023,-0.28 0.18,-0.585 0.446,-0.686 l 0.879,-0.321 c 0.261,-0.095 0.4,-0.39 0.304,-0.653 l -0.736,-2.027 z m -8.799,8.244 c -1.884,0.688 -3.964,-0.283 -4.652,-2.165 -0.687,-1.882 0.279,-3.964 2.163,-4.651 1.881,-0.687 3.965,0.281 4.652,2.164 0.687,1.881 -0.282,3.965 -2.163,4.652 z"
         id="path16890"
         style="fill:none;stroke:#636466" />
    </g>
  </g>
</svg>
